# xmcd CD database file
#
# Track frame offsets:
#	187
#	17580
#	33380
#	49675
#	64392
#	77935
#	106162
#	131182
#	147327
#
# Disc length: 2253 seconds
#
# Revision: 0
# Processed by: cddbd v1.4PL0 Copyright (c) Steve Scherf et al.
# Submitted via: CDex 1.50Beta7
#
DISCID=7c08cb09
DTITLE=Jack McDuff - The Natural Thing
DYEAR=1968
DGENRE=Jazz
TTITLE0=Let My People Go
TTITLE1=Who Stole My Soul?
TTITLE2=L. David Sloan
TTITLE3=Funky Guru
TTITLE4=Ain't It?
TTITLE5=The Natural Thing
TTITLE6=Run On Home
TTITLE7=Con Alma
TTITLE8=Rock Candy
EXTD=YEAR: 1968
EXTT0=
EXTT1=
EXTT2=
EXTT3=
EXTT4=
EXTT5=
EXTT6=
EXTT7=
EXTT8=
PLAYORDER=
